<svg t="1615367795637" class="icon" viewBox="0 0 1024 1024" version="1.1" xmlns="http://www.w3.org/2000/svg" p-id="2134" xmlns:xlink="http://www.w3.org/1999/xlink" width="200" height="200"><defs><style type="text/css"></style></defs><path d="M744 240H424a40 40 0 0 0 0 80h320a40 40 0 0 0 0-80z" ></path><path d="M280 280m-40 0a40 40 0 1 0 80 0 40 40 0 1 0-80 0Z" p-id="2136"></path><path d="M744 472H424a40 40 0 0 0 0 80h320a40 40 0 0 0 0-80z" ></path><path d="M280 512m-40 0a40 40 0 1 0 80 0 40 40 0 1 0-80 0Z" ></path><path d="M744 704H424a40 40 0 0 0 0 80h320a40 40 0 0 0 0-80z" p-id="2139"></path><path d="M280 744m-40 0a40 40 0 1 0 80 0 40 40 0 1 0-80 0Z" ></path><path d="M858 64H166a70 70 0 0 0-70 70v756a70 70 0 0 0 70 70h692a70 70 0 0 0 70-70V134a70 70 0 0 0-70-70z m-10 776a40 40 0 0 1-40 40H216a40 40 0 0 1-40-40V184a40 40 0 0 1 40-40h592a40 40 0 0 1 40 40z"  ></path></svg>