<svg version="1.1" id="图层_1" xmlns="http://www.w3.org/2000/svg" xmlns:xlink="http://www.w3.org/1999/xlink" x="0px" y="0px"
	 viewBox="0 0 500 500" style="enable-background:new 0 0 500 500;" xml:space="preserve">
<path  d="M250,162.4c-34.2,0-62.4,26.3-62.5,58.4c-0.1,32,28.1,58.4,62.4,58.4c34.3,0,62.5-26.3,62.5-58.4
	C312.4,188.7,284.3,162.4,250,162.4z M249.9,250c-17.2,0-31.2-13.1-31.3-29.1c0-16.2,14-29.4,31.2-29.4c17.2,0,31.3,13.1,31.4,29.3
	C281.3,236.9,267.2,250,249.9,250z M497.3,76.6c-7.2-19.2-25.1-31.1-46.8-31.1c-20.7,0-41.3,0-62,0H50.2c-17.1,0-30.9,6.3-41.1,19.2
	C4.5,70.6,1.5,77.6,0.5,85c-0.1,0.8-0.4,1.6-0.5,2.4v266.7c0.9,3.6,1.4,7.4,2.7,10.9C9.9,384.3,27.9,396,50,396.1h184.2v29.3h-3
	c-40.1,0-80.2,0-120.3,0c-6.2,0-11.4,1.9-14.7,7c-5.9,9-0.1,20.3,11,21.9c1.3,0.2,2.6,0.2,3.9,0.2c92.6,0,185.2,0,277.8,0
	c6.3,0,11.5-1.8,14.9-7c5.8-8.9,0.2-20.2-10.8-21.9c-1.5-0.2-3.1-0.3-4.6-0.3H265.7v-29.3h3.1c60.4,0,120.8,0,181.1,0
	c19,0,33.6-7.7,43.5-23c3.2-5,5.1-10.7,6-16.5c0.1-0.8,0.4-1.6,0.5-2.5V87.4C499.1,83.8,498.6,80.1,497.3,76.6L497.3,76.6z
	 M458.8,365.1c-2.8,1.2-6.1,1.7-9.2,1.7c-50.4,0.1-100.7,0.1-151.1,0.1h-48.6c-66.6,0-133.1,0-199.7,0c-7.8,0-13.8-2.8-17.2-9.5
	c-1.2-2.7-1.8-5.6-1.8-8.6c-0.1-44.4-0.1-88.7-0.1-133.1l0-123.5c0-7.2,3.1-12.7,10.1-15.9c2-0.9,4.3-1.2,6.5-1.6
	c0.9-0.2,2-0.1,2.9-0.1c132.9,0,265.8,0,398.6,0c7.8,0,14.1,2.5,17.5,9.3c1.3,2.6,1.9,5.9,1.9,8.8c0.1,44.4,0.1,88.7,0.1,133.1
	c0,41.2,0,82.3,0,123.5C468.8,356.5,465.8,362.1,458.8,365.1z M371.2,140.2c-34.1-23.6-72.3-36.5-114.7-38
	c-21.1-0.8-42.1,1.7-62.4,7.4C135.5,126.5,92.6,161,64.5,211.8c-2.6,4.7-2.5,9.4,0.1,14.2c13.8,25.9,33.1,48.5,56.6,66.1
	c37.6,28.4,80.5,43.1,132.7,43.7c5.6-0.5,15-0.8,24.3-2.1c33.6-4.4,65.6-16.9,93.3-36.4c26.3-18.2,48.1-42.3,63.4-70.4
	c3-5.4,3-10.6,0-16.1C419.6,182.7,397.7,158.5,371.2,140.2L371.2,140.2z M403.4,220.3c-17.3,28.5-41.1,50.9-71.8,66.6
	c-20.2,10.5-42.3,16.9-65,18.8c-5.5,0.5-11,0.7-13.9,0.9c-33.2-0.2-61.7-7.5-88.2-21.9c-28.9-15.7-51.3-37.3-67.8-64.4
	c-0.7-1.2-0.6-2,0-3.1c15-24.8,35.9-45.6,60.8-60.4c19.7-11.9,41.6-19.8,64.3-23.3c40.7-6.3,78.8,0.6,114.3,19.9
	c28.7,15.6,50.8,37.2,67.2,64.1C403.8,218.4,403.8,219.4,403.4,220.3L403.4,220.3z"/>
</svg>
