<?xml version="1.0" standalone="no"?><!DOCTYPE svg PUBLIC "-//W3C//DTD SVG 1.1//EN" "http://www.w3.org/Graphics/SVG/1.1/DTD/svg11.dtd"><svg t="1618398663912" class="icon" viewBox="0 0 1024 1024" version="1.1" xmlns="http://www.w3.org/2000/svg" p-id="16471" xmlns:xlink="http://www.w3.org/1999/xlink" width="48" height="48"><defs><style type="text/css"></style></defs><path d="M640.042667 0c69.12 0 289.237333 218.624 298.368 294.058667l0.298666 4.608v597.333333a128 128 0 0 1-120.490666 127.786667l-7.509334 0.213333h-554.666666a170.666667 170.666667 0 0 1-170.453334-162.133333L85.333333 853.333333V128A128 128 0 0 1 205.866667 0.213333L213.333333 0h426.666667z m-42.666667 85.333333h-384a42.666667 42.666667 0 0 0-42.368 37.674667L170.666667 128v725.333333a85.333333 85.333333 0 0 0 78.933333 85.12l6.4 0.213334h554.666667a42.666667 42.666667 0 0 0 42.368-37.674667l0.298666-4.992V341.333333h-128a128 128 0 0 1-127.786666-120.490666L597.376 213.333333V85.333333z m85.333333 640a42.666667 42.666667 0 0 1 0 85.333334h-341.333333a42.666667 42.666667 0 0 1 0-85.333334h341.333333z m0-213.333333a42.666667 42.666667 0 0 1 0 85.333333h-341.333333a42.666667 42.666667 0 0 1 0-85.333333h341.333333z m0-397.098667V213.333333a42.666667 42.666667 0 0 0 37.674667 42.368l4.992 0.298667 98.517333 0.042667A1572.608 1572.608 0 0 0 682.666667 114.901333z" ></path></svg>