<?xml version="1.0" standalone="no"?><!DOCTYPE svg PUBLIC "-//W3C//DTD SVG 1.1//EN" "http://www.w3.org/Graphics/SVG/1.1/DTD/svg11.dtd"><svg t="1618904808504" class="icon" viewBox="0 0 1024 1024" version="1.1" xmlns="http://www.w3.org/2000/svg" p-id="1150" xmlns:xlink="http://www.w3.org/1999/xlink" width="48" height="48"><defs><style type="text/css"></style></defs><path d="M917.4 664H106.3c-17.4 0-33.1 10.1-39.7 26.2-2.2 5.1-3.2 10.6-3 16.1 0 10.7 4.2 22 12.6 29.7l213.3 211.8c7.9 8 18.7 12.5 30 12.5s22.1-4.5 30-12.5c8.1-7.8 12.6-18.6 12.6-29.7s-4.5-21.9-12.6-29.7L209.1 749.1h708.3c23.4 0 42.7-19.1 42.7-42.3-0.1-23.1-19.3-42.8-42.7-42.8zM106.3 401.6h811.1c17.4 0 33.1-10.1 39.7-26.2 6.6-15.7 3.1-33.8-9-45.8l-256-253.5c-7.9-8-18.7-12.5-30-12.5s-22.1 4.5-30 12.5c-8.1 7.8-12.6 18.6-12.6 29.7s4.5 21.9 12.6 29.7L815.3 317H106.9c-23.4 0-42.7 19.1-42.7 42.3-0.2 11.2 4.2 21.9 12.1 29.9 7.9 8 18.8 12.5 30 12.4z" p-id="1151"></path></svg>