<?xml version="1.0" standalone="no"?><!DOCTYPE svg PUBLIC "-//W3C//DTD SVG 1.1//EN" "http://www.w3.org/Graphics/SVG/1.1/DTD/svg11.dtd"><svg t="1620790079196" class="icon" viewBox="0 0 1024 1024" version="1.1" xmlns="http://www.w3.org/2000/svg" p-id="4459" xmlns:xlink="http://www.w3.org/1999/xlink" width="200" height="200"><defs><style type="text/css"></style></defs><path d="M718.6 227.3c13.2 0 24.5-8.2 24.5-18.6V83.3c0-10.4-10.9-18.6-24.5-18.6-13.2 0-24.1 8.2-24.1 18.6v125.3c0 10.5 10.5 18.7 24.1 18.7zM305.4 227.3c13.2 0 24.1-8.2 24.1-18.6V83.3c0-10.4-10.9-18.6-24.1-18.6-13.2 0-24.5 8.2-24.5 18.6v125.3c0 10.5 10.9 18.7 24.5 18.7z" ></path><path d="M949.3 230.9c0-47.7-44-86.3-98.5-86.3H770v64.5c0 24.5-22.7 44.5-50.9 44.5s-50.9-20-50.9-44.5v-64.5H354.9v64.5c0 24.5-22.7 44.5-50.9 44.5s-50.9-20-50.9-44.5v-64.5h-79.9c-54.5 0-98.5 38.6-98.5 86.3V319h875v-88.1h-0.4zM74.3 873c0 47.7 44 86.3 98.5 86.3h677.5c54.5 0 98.5-38.6 98.5-86.3V363.1H74.3V873z m238.4-255.2c14.5-12.7 38.6-8.2 51.3 6.4L469.3 745 680 503c12.7-14.5 35-16.8 50.9-5.4 16.3 11.8 11.8 40 1.4 50.4L492.5 824c-12.7 14.5-33.1 14.5-45.9 0l-134-153c-12.2-14.6-15.4-39.6 0.1-53.2z" ></path></svg>