<?xml version="1.0" encoding="utf-8"?>
<!-- Generator: Adobe Illustrator 22.1.0, SVG Export Plug-In . SVG Version: 6.00 Build 0)  -->
<svg version="1.1" id="图层_1" xmlns="http://www.w3.org/2000/svg" xmlns:xlink="http://www.w3.org/1999/xlink" x="0px" y="0px"
	 viewBox="0 0 500 500" style="enable-background:new 0 0 500 500;" xml:space="preserve">
<style type="text/css">
	.st0{fill:#0F0F0F;}
</style>
<g>
	<path class="st0" d="M460.1,35.2H40.9c-22.3,0-40.5,18.2-40.5,40.5v276c0,22.3,18.2,40.5,40.5,40.5h195.4v58.3h-46.6
		c-7.9,0-14.2,6.4-14.2,14.2c0,7.9,6.4,14.2,14.2,14.2h121.6c7.9,0,14.2-6.4,14.2-14.2c0-7.9-6.4-14.2-14.2-14.2h-46.6v-58.3h195.4
		c22.3,0,40.5-18.2,40.5-40.5v-276C500.5,53.4,482.4,35.2,460.1,35.2z M472.1,351.7c0,6.6-5.4,12-12,12H40.9c-6.6,0-12-5.4-12-12
		V318h443.2V351.7z M472.1,289.5H28.9V75.7c0-6.6,5.4-12,12-12h419.2c6.6,0,12,5.4,12,12V289.5z"/>
	<path class="st0" d="M169.2,187.2c8.6-3.4,17.1-13.2,17.1-26.9c0-21.4-14.8-34.7-38.3-34.7H98.7v126.9H150
		c22.5,0,38.3-12.5,38.3-35.8C188.3,200.6,179,191.2,169.2,187.2z M117.9,142.9h28.5c12.3,0,20.7,6.4,20.7,18.2
		c0,11.8-8.4,18.2-20.7,18.2h-28.5V142.9z M148.2,235.2h-30.3v-38.7h30.3c13.4,0,20.8,8,20.8,19.2
		C169.1,227,161.6,235.2,148.2,235.2z"/>
	<polygon class="st0" points="339.8,204.5 302.7,125.6 283.4,125.6 283.4,252.5 302.7,252.5 302.7,167.6 332.6,229.5 346.9,229.5 
		376.1,167.6 376.1,252.5 395.3,252.5 395.3,125.6 376.1,125.6 	"/>
	<rect x="223.9" y="125.6" class="st0" width="19.2" height="126.9"/>
</g>
</svg>
