<?xml version="1.0" encoding="utf-8"?>
<!-- Generator: Adobe Illustrator 22.1.0, SVG Export Plug-In . SVG Version: 6.00 Build 0)  -->
<svg version="1.1" id="图层_1" xmlns="http://www.w3.org/2000/svg" xmlns:xlink="http://www.w3.org/1999/xlink" x="0px" y="0px"
	 viewBox="0 0 500 500" style="enable-background:new 0 0 500 500;" xml:space="preserve">
<style type="text/css">
	.st0{fill:#595959;}
</style>
<g>
	<path class="st0" d="M392.2,433.7h-284c-9.9,0-17.8,8-17.8,17.8s8,17.8,17.8,17.8h284c9.9,0,17.8-8,17.8-17.8
		S402,433.7,392.2,433.7z"/>
	<path class="st0" d="M445.6,41.6h-391c-29.5,0-53.5,24-53.5,53.5V344c0,29.5,24,53.5,53.5,53.5h391c29.5,0,53.5-23.9,53.5-53.5
		V95.1C499.1,65.6,475.1,41.6,445.6,41.6z M463.5,344c0,9.8-8,17.8-17.8,17.8h-391c-9.8,0-17.8-8-17.8-17.8V95.1
		c0-9.8,8-17.8,17.8-17.8h391c9.8,0,17.8,8,17.8,17.8V344z"/>
	<path class="st0" d="M414,261.9l-11.5-27.1l-43.1-101.4c-3-7-10.6-11.6-19-11.6s-16.1,4.6-19,11.6l-43.1,101.4l-10.9,25.6
		l-5.9,13.8c-1.1,2.6-1.6,5.3-1.6,7.9c0,10.6,8.6,20.2,20.2,20.2c8.1,0,15.4-4.8,18.6-12.3l8.2-19.5l0.9-2.2H373l0.9,2.2l8.2,19.5
		c3.2,7.5,10.5,12.3,18.6,12.3c14.4-0.1,24.2-14.8,18.5-28L414,261.9z M321,237.1l0.9-2.2l15.9-37.8c0.9-2.3,4.2-2.3,5.2,0
		l15.9,37.8l0.9,2.2H321z"/>
	<path class="st0" d="M178.2,135.7c-41.2,0-74.7,36.2-74.7,80.8s33.5,80.8,74.7,80.8s74.7-36.2,74.7-80.8S219.4,135.7,178.2,135.7z
		 M178.2,261.6c-21.6,0-39.1-20.2-39.1-45.1s17.5-45.1,39.1-45.1s39.1,20.2,39.1,45.1S199.8,261.6,178.2,261.6z"/>
</g>
</svg>
