<?xml version="1.0" encoding="utf-8"?>
<!-- Generator: Adobe Illustrator 22.1.0, SVG Export Plug-In . SVG Version: 6.00 Build 0)  -->
<svg version="1.1" id="图层_1" xmlns="http://www.w3.org/2000/svg" xmlns:xlink="http://www.w3.org/1999/xlink" x="0px" y="0px"
	 viewBox="0 0 500 500" style="enable-background:new 0 0 500 500;" xml:space="preserve">
<style type="text/css">
	.st0{fill:#606060;}
</style>
<path class="st0" d="M471.7,494.7c-5,4.1-11.5,5.9-17.9,5H46c-9.8,0-15.7-1.4-18.3-4.4c-2.6-3-3.1-8.6-1.8-17.8
	c3.6-25.1,8.1-51,13.6-76.9c1.7-9.6,8.6-17.3,18-20c31.3-9.5,64.9-19.7,99-30.8c5.7-1.8,7.4-1,10.1,2.7
	c33.7,45.8,98.2,55.6,144,21.9c7.7-5.7,14.6-12.4,20.4-19.9c2.7-5,8.9-6.9,13.9-4.2c0.1,0.1,0.2,0.1,0.3,0.2
	c32.8,10.8,65.2,20.7,95.4,29.9c10.3,2.1,18,10.5,19.4,20.9c1.9,11.3,4,22.5,6.1,33.7c2.6,14.1,5.3,28.1,7.6,42.3
	C475.6,483.1,474.8,489.4,471.7,494.7 M108,193.8c47.1,5.3,94.5,7.8,141.9,7.5c47.4,0.2,94.8-2.3,142-7.6c0.2-2.1,0.6-4.1,1.3-6
	l0.3-5.1c0.9-13.3,1.7-25.8-5.6-36.4c-3.6-4.9-6-10.6-6.9-16.6c-4.7-35-22.6-67-49.9-89.5c-1.3-1.1-2.7-2.3-3.9-3.2
	c-0.3,1.4-0.6,3.2-1,4.9c-5.3,29.8-13.3,59.1-24,87.4l-9.8-1.3c-0.4-3.7-0.2-7.4,0.4-11c1.2-9.8,2.7-19.5,4.3-29.3
	c3.7-21.3,6.2-42.7,7.5-64.3c1.3-7.6-3.7-14.8-11.3-16.1c0,0,0,0-0.1,0c-21.3-7.5-44.2-9.3-66.4-5.3c-32.5,5.7-33,6.5-30.2,39.7
	c0.3,2.8,0.6,5.6,1,8.4l10.9,76.4l-9.8,2.7c-11.8-29.6-20.5-60.4-26.1-91.8c-29.3,22.5-48.7,55.7-53.7,92.3
	c-0.1,0.7-0.1,1.5-0.2,2.4c0.2,3.6-1,7.2-3.4,10c-8.9,8.5-8.9,18.8-8.9,30.8c0,3.5,0,7-0.2,10.5c-0.2,3.1,0.4,3.7,0.4,3.8
	C106.9,189.4,107.3,191.6,108,193.8 M249.9,224.2c-43.8,0-84.5-1.9-118.8-5c0,0.4,0,0.7,0,1.1l0.5,3.6c2.7,19.3,5.2,37.4,20.1,51.1
	c2.3,2.4,3.9,5.3,4.7,8.5c10.5,29.9,31.4,55,58.9,70.7c19.3,13.4,44.5,14.7,65.1,3.3c29.8-14.9,52.7-40.6,64-72l0.5-1.7
	c0.7-3.1,2.3-5.9,4.4-8.2c16.4-14.9,18.6-35.1,20.9-56.5c-6,0.6-12.2,1.1-18.5,1.6c-1.4,0.2-2.7,0.3-4.1,0.3
	C318.2,223,285,224.2,249.9,224.2 M249.9,224.2c-43.8,0-84.5-1.9-118.8-5c0,0.4,0,0.7,0,1.1l0.5,3.6c2.7,19.3,5.2,37.4,20.1,51.1
	c2.3,2.4,3.9,5.3,4.7,8.5c10.5,29.9,31.4,55,58.9,70.7c19.3,13.4,44.5,14.7,65.1,3.3c29.8-14.9,52.7-40.6,64-72l0.5-1.7
	c0.7-3.1,2.3-5.9,4.4-8.2c16.4-14.9,18.6-35.1,20.9-56.5c-6,0.6-12.2,1.1-18.5,1.6c-1.4,0.2-2.7,0.3-4.1,0.3
	C318.1,223,285,224.2,249.9,224.2"/>
</svg>
