<?xml version="1.0" encoding="utf-8"?>
<!-- Generator: Adobe Illustrator 22.1.0, SVG Export Plug-In . SVG Version: 6.00 Build 0)  -->
<svg version="1.1" id="图层_1" xmlns="http://www.w3.org/2000/svg" xmlns:xlink="http://www.w3.org/1999/xlink" x="0px" y="0px"
	 viewBox="0 0 500 500" style="enable-background:new 0 0 500 500;" xml:space="preserve">
<style type="text/css">
	.st0{fill:#040000;}
</style>
<path class="st0" d="M406.7,226.9H191c-6.3,0-11.8,5.5-11.8,11.8s5.5,11.8,11.8,11.8h215.7c6.5-0.1,11.7-5.3,11.8-11.8
	c0.2-6.3-4.8-11.6-11.1-11.8C407.2,226.9,407,226.9,406.7,226.9L406.7,226.9z M406.7,326.1H191c-6.3,0-11.8,5.5-11.8,11.8
	c0,6.4,5.5,11.8,11.8,11.8h215.7c6.3,0,11.8-5.5,11.8-11.8C418.5,331.6,413.1,326.1,406.7,326.1z M468.6,96.8H313.9l-2.7-7.3
	c-18.2-51-53.7-63.7-80.1-64.6H30.9C13.6,24.9,0,38.5,0,54.9v379.5c0,16.4,13.7,30,30.9,30h437.7c17.3,0,30.9-13.7,30.9-30V126.8
	C499.5,110.5,485.9,96.8,468.6,96.8z M30.9,68.6c0-23.7,8.2-20,42.8-20h123.8c52.8,0,66.4,11.8,76.5,29.1l7.3,18.2H30.9L30.9,68.6
	L30.9,68.6z M470.4,401.6c0,34.6-11.8,35.5-41,35.5H71.9c-35.5,0-41-2.7-41-41V125h405.8c38.2,0,33.6,14.5,33.6,41L470.4,401.6
	L470.4,401.6z M80.9,217.8h38.2V256H80.9V217.8L80.9,217.8z M80.9,318.8h38.2v38.2H80.9V318.8L80.9,318.8z"/>
</svg>
